<svg xmlns="http://www.w3.org/2000/svg" xmlns:xlink="http://www.w3.org/1999/xlink" width="300" zoomAndPan="magnify" viewBox="0 0 224.87999 233.04" height="300" preserveAspectRatio="xMidYMid meet" version="1.0"><defs><clipPath id="3e161f2281"><path d="M 12 65 L 213 65 L 213 192.582031 L 12 192.582031 Z M 12 65 " clip-rule="nonzero"/></clipPath><clipPath id="03336b1a04"><path d="M 53 31.246094 L 73 31.246094 L 73 50 L 53 50 Z M 53 31.246094 " clip-rule="nonzero"/></clipPath></defs><g clip-path="url(#3e161f2281)"><path fill="#722410" d="M 19.035156 153.296875 C 18.605469 152.054688 19.320312 150.164062 20.984375 147.9375 C 23 151.65625 25.488281 154.714844 28.394531 157.066406 C 26.886719 156.914062 25.515625 156.695312 24.316406 156.402344 C 21.359375 155.6875 19.484375 154.585938 19.035156 153.300781 C 19.035156 153.300781 19.035156 153.300781 19.035156 153.296875 Z M 22.269531 125.429688 C 22.589844 125.109375 23.015625 124.929688 23.472656 124.929688 C 27.84375 124.929688 31.40625 121.371094 31.40625 116.996094 L 31.40625 94.910156 C 31.40625 92.523438 33.347656 90.578125 35.734375 90.578125 C 36.933594 90.578125 38.046875 91.054688 38.867188 91.921875 C 39.695312 92.792969 40.121094 93.929688 40.0625 95.132812 C 39.613281 104.207031 40.078125 117.554688 44.828125 129.617188 C 47.558594 136.566406 51.425781 142.285156 56.320312 146.609375 C 59.09375 149.0625 62.203125 151.070312 65.625 152.632812 C 56.808594 154.835938 52.058594 155.636719 43.894531 156.683594 L 41.289062 156.203125 C 34.3125 155.039062 29.015625 150.632812 25.542969 143.105469 C 21.941406 135.292969 21.789062 127.488281 21.78125 126.625 C 21.78125 126.171875 21.953125 125.75 22.269531 125.429688 Z M 69.601562 126.929688 L 74.402344 122.933594 C 73.179688 121.464844 72.175781 120.027344 71.355469 118.613281 C 72.84375 118.066406 74.34375 117.527344 75.847656 117.007812 C 92.925781 111.066406 109.570312 107.296875 122.722656 106.394531 C 128.839844 105.976562 133.996094 106.222656 137.632812 107.101562 C 140.59375 107.820312 142.46875 108.921875 142.917969 110.207031 C 143.363281 111.492188 142.578125 113.523438 140.703125 115.921875 C 139.765625 117.121094 138.566406 118.386719 137.136719 119.707031 C 137.425781 117.078125 136.589844 114.4375 134.828125 112.460938 C 133.050781 110.460938 130.5 109.316406 127.796875 109.316406 C 123.132812 109.316406 119.140625 112.816406 118.511719 117.457031 C 116.921875 129.132812 110.023438 135.9375 108.097656 137.628906 C 101.292969 140.796875 93.875 143.800781 86.105469 146.5 C 82.917969 147.609375 79.75 148.640625 76.613281 149.59375 C 64.277344 147.210938 55.550781 139.757812 50.667969 127.402344 C 55.324219 125.128906 60.285156 122.945312 65.453125 120.882812 C 66.53125 122.855469 67.890625 124.878906 69.601562 126.929688 Z M 154.757812 93.703125 C 157.339844 93.703125 159.441406 95.804688 159.441406 98.386719 C 159.441406 99.890625 158.726562 101.230469 157.621094 102.085938 L 155.902344 102.925781 C 155.535156 103.015625 155.152344 103.070312 154.757812 103.070312 C 154.566406 103.070312 154.382812 103.054688 154.195312 103.035156 L 154.929688 102.546875 C 156.363281 101.589844 156.75 99.652344 155.796875 98.214844 C 154.835938 96.78125 152.898438 96.394531 151.464844 97.347656 L 150.078125 98.273438 C 150.140625 95.742188 152.214844 93.703125 154.757812 93.703125 Z M 201.152344 72.117188 C 202.683594 71.429688 204.472656 72.066406 205.222656 73.570312 L 205.953125 75.03125 C 206.332031 75.785156 206.390625 76.640625 206.117188 77.441406 C 205.84375 78.238281 205.273438 78.878906 204.5 79.25 L 165.683594 98.160156 C 165.617188 94.921875 164.136719 92.027344 161.835938 90.066406 Z M 130.929688 119.046875 C 130.269531 124.644531 129.175781 125.800781 129.128906 125.847656 L 129.191406 125.90625 C 126.601562 127.667969 123.769531 129.421875 120.71875 131.15625 C 122.492188 127.648438 124.011719 123.367188 124.699219 118.296875 C 124.910156 116.738281 126.242188 115.5625 127.828125 115.5625 C 128.730469 115.5625 129.558594 115.933594 130.160156 116.613281 C 130.761719 117.285156 131.035156 118.152344 130.929688 119.046875 Z M 98.417969 181.894531 C 81.765625 187.6875 64.292969 187.839844 49.222656 182.320312 C 38.089844 178.246094 29.273438 171.429688 23.613281 162.671875 C 26.398438 163.265625 29.703125 163.566406 33.53125 163.566406 C 35.445312 163.566406 37.488281 163.492188 39.660156 163.339844 C 50.425781 162.605469 63.382812 160.035156 76.984375 155.996094 C 77.257812 156.039062 84.703125 153.601562 88.15625 152.398438 C 96.339844 149.554688 104.164062 146.378906 111.324219 143.011719 C 111.324219 143.011719 111.324219 143.011719 111.484375 142.9375 C 119.65625 139.09375 126.964844 135.003906 132.980469 130.882812 C 138.355469 127.195312 142.410156 123.703125 145.132812 120.414062 C 147.484375 145.351562 128.433594 171.457031 98.417969 181.894531 Z M 47.078125 188.1875 C 55.109375 191.128906 63.746094 192.597656 72.585938 192.597656 C 81.820312 192.597656 91.269531 190.996094 100.46875 187.792969 C 118.480469 181.53125 133.4375 169.871094 142.578125 154.96875 C 151.847656 139.863281 154.0625 123.238281 148.816406 108.15625 C 148.714844 107.867188 148.59375 107.585938 148.464844 107.3125 C 150.246094 108.574219 152.414062 109.316406 154.757812 109.316406 C 155.761719 109.316406 156.726562 109.179688 157.652344 108.925781 L 207.21875 84.875 C 209.5 83.777344 211.207031 81.855469 212.023438 79.460938 C 212.84375 77.066406 212.671875 74.5 211.542969 72.238281 L 210.808594 70.777344 C 208.558594 66.273438 203.195312 64.359375 198.578125 66.425781 L 151.898438 87.738281 C 147.234375 88.984375 143.828125 93.335938 143.828125 98.386719 C 143.828125 99.660156 144.050781 100.886719 144.453125 102.023438 L 143.535156 102.636719 C 131.28125 96.507812 101.5625 101.449219 73.796875 111.105469 C 72.164062 111.675781 70.53125 112.261719 68.914062 112.859375 C 65.84375 101.492188 73.785156 93.21875 74.21875 92.78125 L 69.792969 88.371094 C 69.613281 88.554688 65.320312 92.898438 63.164062 99.796875 C 61.921875 103.78125 61.25 109.097656 63.039062 115.125 C 58.046875 117.117188 53.242188 119.226562 48.699219 121.417969 C 46.179688 112.0625 45.957031 102.414062 46.300781 95.4375 C 46.441406 92.515625 45.410156 89.734375 43.394531 87.613281 C 41.378906 85.5 38.660156 84.332031 35.734375 84.332031 C 29.902344 84.332031 25.160156 89.078125 25.160156 94.910156 L 25.160156 116.996094 C 25.160156 117.925781 24.402344 118.683594 23.472656 118.683594 C 21.339844 118.683594 19.339844 119.519531 17.839844 121.027344 C 16.339844 122.535156 15.523438 124.539062 15.535156 126.664062 C 15.558594 130.277344 16.304688 135.929688 18.214844 141.546875 C 13.4375 146.660156 11.726562 151.296875 13.136719 155.351562 C 18.382812 170.433594 30.4375 182.09375 47.078125 188.1875 " fill-opacity="1" fill-rule="nonzero"/></g><path fill="#722410" d="M 40.773438 65.597656 C 39.050781 65.597656 37.652344 64.195312 37.652344 62.472656 C 37.652344 60.75 39.050781 59.351562 40.773438 59.351562 C 42.496094 59.351562 43.894531 60.75 43.894531 62.472656 C 43.894531 64.195312 42.496094 65.597656 40.773438 65.597656 Z M 40.773438 53.105469 C 35.605469 53.105469 31.40625 57.308594 31.40625 62.472656 C 31.40625 67.640625 35.605469 71.84375 40.773438 71.84375 C 45.9375 71.84375 50.140625 67.640625 50.140625 62.472656 C 50.140625 57.308594 45.9375 53.105469 40.773438 53.105469 " fill-opacity="1" fill-rule="nonzero"/><g clip-path="url(#03336b1a04)"><path fill="#722410" d="M 59.511719 40.613281 C 59.511719 38.890625 60.910156 37.492188 62.632812 37.492188 C 64.355469 37.492188 65.757812 38.890625 65.757812 40.613281 C 65.757812 42.335938 64.355469 43.734375 62.632812 43.734375 C 60.910156 43.734375 59.511719 42.335938 59.511719 40.613281 Z M 72.003906 40.613281 C 72.003906 35.445312 67.800781 31.246094 62.632812 31.246094 C 57.46875 31.246094 53.265625 35.445312 53.265625 40.613281 C 53.265625 45.78125 57.46875 49.980469 62.632812 49.980469 C 67.800781 49.980469 72.003906 45.78125 72.003906 40.613281 " fill-opacity="1" fill-rule="nonzero"/></g><path fill="#722410" d="M 59.511719 74.964844 L 53.265625 74.964844 L 53.265625 81.210938 L 59.511719 81.210938 L 59.511719 74.964844 " fill-opacity="1" fill-rule="nonzero"/><path fill="#722410" d="M 56.386719 103.070312 L 50.140625 103.070312 L 50.140625 109.316406 L 56.386719 109.316406 L 56.386719 103.070312 " fill-opacity="1" fill-rule="nonzero"/><path fill="#722410" d="M 75.125 131.175781 L 68.878906 131.175781 L 68.878906 137.421875 L 75.125 137.421875 L 75.125 131.175781 " fill-opacity="1" fill-rule="nonzero"/><path fill="#722410" d="M 18.914062 78.085938 L 25.160156 78.085938 L 25.160156 71.84375 L 18.914062 71.84375 L 18.914062 78.085938 " fill-opacity="1" fill-rule="nonzero"/><path fill="#722410" d="M 45.285156 155.636719 L 48.75 150.4375 C 41.121094 145.351562 40.78125 140.664062 40.773438 140.464844 C 40.773438 140.519531 40.773438 140.546875 40.773438 140.546875 L 34.527344 140.546875 C 34.527344 141.355469 34.828125 148.664062 45.285156 155.636719 " fill-opacity="1" fill-rule="nonzero"/><path fill="#722410" d="M 76.097656 60.789062 C 78.242188 57.550781 80.4375 55.332031 80.457031 55.308594 L 76.039062 50.898438 C 75.621094 51.316406 65.757812 61.300781 65.757812 71.84375 L 72.003906 71.84375 C 72.003906 68.660156 73.417969 64.835938 76.097656 60.789062 " fill-opacity="1" fill-rule="nonzero"/></svg>