<svg xmlns="http://www.w3.org/2000/svg" xmlns:xlink="http://www.w3.org/1999/xlink" width="300" zoomAndPan="magnify" viewBox="0 0 224.87999 233.04" height="300" preserveAspectRatio="xMidYMid meet" version="1.0"><defs><clipPath id="c95d508529"><path d="M 25 9.402344 L 199 9.402344 L 199 214.804688 L 25 214.804688 Z M 25 9.402344 " clip-rule="nonzero"/></clipPath></defs><g clip-path="url(#c95d508529)"><path fill="#e18b4c" d="M 197.972656 179.398438 C 192.464844 169.726562 186.960938 160.054688 181.453125 150.386719 C 177.152344 142.824219 172.851562 135.242188 168.488281 127.574219 C 169.296875 127.15625 170.015625 126.625 170.65625 125.980469 C 171.292969 125.335938 171.8125 124.609375 172.21875 123.796875 C 172.628906 122.984375 172.898438 122.132812 173.035156 121.234375 C 173.167969 120.339844 173.164062 119.441406 173.015625 118.546875 C 172.386719 112.964844 171.714844 107.394531 171 101.832031 C 170.925781 101.460938 170.941406 101.09375 171.054688 100.734375 C 171.167969 100.371094 171.363281 100.058594 171.636719 99.796875 C 175.507812 95.796875 179.335938 91.753906 183.183594 87.722656 C 183.597656 87.335938 183.96875 86.90625 184.296875 86.445312 C 184.628906 85.980469 184.90625 85.488281 185.132812 84.964844 C 185.363281 84.445312 185.535156 83.90625 185.652344 83.351562 C 185.773438 82.792969 185.832031 82.234375 185.835938 81.664062 C 185.839844 81.09375 185.789062 80.53125 185.675781 79.972656 C 185.566406 79.417969 185.402344 78.875 185.179688 78.351562 C 184.957031 77.828125 184.6875 77.332031 184.363281 76.863281 C 184.042969 76.394531 183.675781 75.964844 183.265625 75.570312 C 179.546875 71.542969 175.839844 67.507812 172.078125 63.523438 C 171.722656 63.183594 171.472656 62.78125 171.328125 62.3125 C 171.1875 61.84375 171.164062 61.371094 171.269531 60.890625 C 172.101562 55.34375 172.878906 49.785156 173.605469 44.21875 C 173.707031 43.671875 173.753906 43.117188 173.742188 42.558594 C 173.730469 42 173.664062 41.449219 173.542969 40.902344 C 173.417969 40.359375 173.242188 39.832031 173.011719 39.320312 C 172.78125 38.8125 172.5 38.332031 172.171875 37.882812 C 171.84375 37.429688 171.472656 37.015625 171.058594 36.640625 C 170.648438 36.261719 170.199219 35.933594 169.71875 35.648438 C 169.238281 35.363281 168.734375 35.128906 168.207031 34.945312 C 167.679688 34.765625 167.136719 34.636719 166.582031 34.566406 C 161.082031 33.484375 155.582031 32.359375 150.070312 31.324219 C 149.671875 31.269531 149.3125 31.121094 148.988281 30.882812 C 148.667969 30.644531 148.421875 30.339844 148.257812 29.972656 C 145.484375 24.789062 142.683594 19.617188 139.863281 14.460938 C 139.53125 13.761719 139.101562 13.128906 138.570312 12.5625 C 138.042969 12 137.4375 11.53125 136.761719 11.152344 C 136.085938 10.777344 135.367188 10.511719 134.609375 10.359375 C 133.851562 10.207031 133.085938 10.175781 132.316406 10.261719 C 130.925781 10.398438 129.597656 10.769531 128.332031 11.367188 C 123.378906 13.59375 118.46875 15.910156 113.5625 18.234375 C 113.230469 18.414062 112.871094 18.503906 112.492188 18.496094 C 112.113281 18.492188 111.757812 18.398438 111.429688 18.207031 C 106.363281 15.695312 101.273438 13.234375 96.195312 10.75 C 95.722656 10.46875 95.21875 10.238281 94.695312 10.058594 C 94.171875 9.878906 93.632812 9.757812 93.082031 9.695312 C 92.535156 9.628906 91.984375 9.621094 91.429688 9.675781 C 90.878906 9.726562 90.339844 9.835938 89.8125 10 C 89.28125 10.167969 88.777344 10.386719 88.292969 10.65625 C 87.8125 10.929688 87.363281 11.25 86.949219 11.617188 C 86.535156 11.984375 86.160156 12.390625 85.832031 12.835938 C 85.503906 13.28125 85.226562 13.757812 84.996094 14.261719 C 82.21875 19.238281 79.480469 24.253906 76.660156 29.199219 C 76.296875 29.804688 75.773438 30.199219 75.09375 30.386719 C 69.492188 31.441406 63.871094 32.414062 58.257812 33.390625 C 57.699219 33.460938 57.152344 33.589844 56.621094 33.773438 C 56.089844 33.957031 55.578125 34.195312 55.09375 34.480469 C 54.609375 34.765625 54.160156 35.097656 53.742188 35.476562 C 53.324219 35.855469 52.949219 36.273438 52.617188 36.726562 C 52.28125 37.179688 52 37.664062 51.761719 38.175781 C 51.527344 38.6875 51.347656 39.21875 51.21875 39.769531 C 51.09375 40.316406 51.019531 40.871094 51.007812 41.4375 C 50.992188 42 51.035156 42.558594 51.132812 43.113281 C 51.847656 48.726562 52.464844 54.347656 53.167969 59.960938 C 53.234375 60.359375 53.203125 60.746094 53.070312 61.125 C 52.941406 61.507812 52.726562 61.832031 52.429688 62.105469 C 48.648438 66.011719 45.027344 70.074219 41.132812 73.859375 C 40.707031 74.265625 40.320312 74.707031 39.984375 75.191406 C 39.644531 75.671875 39.359375 76.183594 39.125 76.726562 C 38.886719 77.265625 38.710938 77.824219 38.589844 78.402344 C 38.46875 78.976562 38.40625 79.5625 38.402344 80.152344 C 38.398438 80.738281 38.457031 81.324219 38.570312 81.902344 C 38.6875 82.480469 38.859375 83.039062 39.089844 83.582031 C 39.316406 84.125 39.597656 84.640625 39.933594 85.128906 C 40.265625 85.613281 40.644531 86.058594 41.070312 86.46875 C 44.898438 90.386719 48.53125 94.496094 52.277344 98.496094 C 52.558594 98.75 52.757812 99.054688 52.878906 99.414062 C 53 99.773438 53.023438 100.136719 52.953125 100.507812 C 52.117188 106.148438 51.375 111.800781 50.5625 117.445312 C 50.402344 118.300781 50.378906 119.164062 50.492188 120.027344 C 50.605469 120.890625 50.847656 121.71875 51.222656 122.503906 C 51.59375 123.292969 52.082031 124.003906 52.679688 124.636719 C 53.277344 125.269531 53.960938 125.792969 54.726562 126.210938 C 55.023438 126.386719 55.3125 126.578125 55.640625 126.78125 C 55.398438 127.242188 55.199219 127.640625 54.980469 128.03125 C 45.300781 145.1875 35.683594 162.386719 25.882812 179.480469 C 25.421875 180.171875 25.183594 180.933594 25.160156 181.761719 C 25.136719 182.59375 25.335938 183.363281 25.753906 184.082031 C 26.175781 184.796875 26.75 185.347656 27.488281 185.730469 C 28.222656 186.117188 29.003906 186.277344 29.832031 186.214844 C 39.847656 186.035156 49.863281 186.179688 59.878906 186.125 C 60.363281 186.078125 60.820312 186.179688 61.238281 186.429688 C 61.660156 186.675781 61.96875 187.027344 62.160156 187.476562 C 66.679688 195.441406 71.234375 203.382812 75.824219 211.304688 C 75.96875 211.6875 76.164062 212.035156 76.414062 212.355469 C 76.664062 212.679688 76.957031 212.953125 77.289062 213.183594 C 77.625 213.417969 77.988281 213.59375 78.375 213.710938 C 78.765625 213.832031 79.160156 213.894531 79.566406 213.890625 C 79.976562 213.890625 80.371094 213.828125 80.761719 213.707031 C 81.148438 213.582031 81.507812 213.40625 81.839844 213.171875 C 82.175781 212.9375 82.464844 212.660156 82.714844 212.339844 C 82.960938 212.015625 83.15625 211.664062 83.296875 211.285156 C 92.550781 195.484375 101.804688 179.683594 111.066406 163.890625 C 111.300781 163.484375 111.566406 163.097656 111.902344 162.578125 C 112.253906 163.15625 112.511719 163.566406 112.753906 163.984375 C 121.949219 179.878906 131.140625 195.773438 140.328125 211.667969 C 140.488281 212.066406 140.703125 212.433594 140.96875 212.769531 C 141.234375 213.105469 141.542969 213.398438 141.890625 213.644531 C 142.242188 213.894531 142.621094 214.085938 143.027344 214.226562 C 143.433594 214.363281 143.851562 214.441406 144.28125 214.460938 C 144.707031 214.433594 145.121094 214.347656 145.523438 214.203125 C 145.925781 214.058594 146.300781 213.859375 146.644531 213.601562 C 146.988281 213.347656 147.289062 213.050781 147.546875 212.707031 C 147.804688 212.367188 148.007812 211.996094 148.15625 211.59375 C 152.648438 203.511719 157.203125 195.464844 161.695312 187.382812 C 161.863281 186.96875 162.140625 186.648438 162.523438 186.417969 C 162.90625 186.1875 163.320312 186.089844 163.761719 186.132812 C 173.824219 186.183594 183.882812 186.164062 193.945312 186.160156 C 198.203125 186.152344 200.046875 183.046875 197.972656 179.398438 Z M 47.167969 81.671875 C 46.871094 81.34375 46.589844 80.996094 46.238281 80.589844 C 46.558594 80.234375 46.839844 79.898438 47.144531 79.578125 C 50.953125 75.582031 54.734375 71.550781 58.589844 67.601562 C 59.097656 67.109375 59.539062 66.5625 59.914062 65.960938 C 60.289062 65.359375 60.582031 64.722656 60.800781 64.046875 C 61.015625 63.375 61.148438 62.683594 61.195312 61.976562 C 61.238281 61.269531 61.199219 60.566406 61.070312 59.871094 C 60.300781 54.40625 59.757812 48.90625 59.03125 43.433594 C 58.859375 42.125 59.171875 41.65625 60.507812 41.4375 C 66.085938 40.53125 71.644531 39.496094 77.21875 38.53125 C 78.550781 38.328125 79.761719 37.828125 80.855469 37.039062 C 81.949219 36.246094 82.796875 35.25 83.40625 34.046875 C 86.03125 29.242188 88.710938 24.464844 91.371094 19.679688 C 91.644531 19.175781 91.945312 18.675781 92.285156 18.082031 C 93.273438 18.550781 94.195312 18.984375 95.109375 19.433594 C 99.667969 21.65625 104.230469 23.859375 108.773438 26.109375 C 109.925781 26.714844 111.15625 27.019531 112.457031 27.027344 C 113.757812 27.035156 114.988281 26.746094 116.148438 26.15625 C 121.714844 23.554688 127.308594 21.023438 133.070312 18.386719 C 135.117188 22.25 137.09375 25.96875 139.070312 29.691406 C 139.992188 31.433594 140.882812 33.199219 141.84375 34.925781 C 142.410156 36.042969 143.199219 36.972656 144.210938 37.71875 C 145.21875 38.460938 146.34375 38.933594 147.582031 39.136719 C 153.410156 40.199219 159.195312 41.410156 165.019531 42.5625 C 165.234375 42.605469 165.445312 42.679688 165.828125 42.792969 C 165.601562 44.464844 165.390625 46.136719 165.15625 47.800781 C 164.5 52.421875 163.804688 57.039062 163.195312 61.664062 C 163.023438 62.84375 163.125 63.996094 163.496094 65.128906 C 163.867188 66.257812 164.46875 67.25 165.300781 68.097656 C 169.210938 72.308594 173.117188 76.527344 177.015625 80.753906 C 177.3125 81.078125 177.601562 81.417969 177.957031 81.820312 L 168.9375 91.140625 C 167.683594 92.433594 166.449219 93.734375 165.179688 95.007812 C 164.25 95.886719 163.578125 96.933594 163.160156 98.148438 C 162.742188 99.359375 162.632812 100.597656 162.824219 101.867188 C 163.523438 107.523438 164.1875 113.1875 164.863281 118.847656 C 164.917969 119.332031 164.953125 119.8125 165.015625 120.445312 C 162.3125 120.902344 159.664062 121.351562 157.023438 121.796875 C 153.65625 122.355469 150.269531 122.875 146.929688 123.476562 C 145.664062 123.6875 144.515625 124.171875 143.480469 124.925781 C 142.445312 125.683594 141.632812 126.632812 141.046875 127.769531 C 138.320312 132.71875 135.578125 137.667969 132.824219 142.609375 C 132.605469 142.996094 132.378906 143.382812 132.097656 143.851562 C 131.722656 143.695312 131.363281 143.566406 131.019531 143.394531 C 125.886719 140.898438 120.769531 138.414062 115.660156 135.890625 C 114.488281 135.269531 113.242188 134.957031 111.914062 134.949219 C 110.589844 134.941406 109.335938 135.242188 108.160156 135.847656 C 102.976562 138.324219 97.769531 140.75 92.574219 143.191406 C 92.175781 143.378906 91.765625 143.550781 91.285156 143.765625 C 89.613281 140.617188 87.992188 137.570312 86.375 134.527344 C 85.136719 132.1875 83.910156 129.839844 82.664062 127.503906 C 82.378906 126.90625 82.019531 126.351562 81.59375 125.84375 C 81.167969 125.332031 80.6875 124.882812 80.152344 124.492188 C 79.617188 124.101562 79.039062 123.78125 78.425781 123.535156 C 77.808594 123.285156 77.171875 123.117188 76.515625 123.023438 C 70.71875 122.066406 64.949219 120.921875 59.167969 119.847656 C 58.867188 119.789062 58.574219 119.675781 58.132812 119.546875 C 58.464844 117.089844 58.792969 114.660156 59.128906 112.230469 C 59.671875 108.449219 60.210938 104.667969 60.722656 100.886719 C 60.917969 99.667969 60.828125 98.472656 60.453125 97.296875 C 60.082031 96.121094 59.46875 95.09375 58.609375 94.207031 C 54.78125 90.042969 50.96875 85.863281 47.167969 81.671875 Z M 186.21875 178.113281 C 177.777344 178.113281 169.339844 178.136719 160.898438 178.09375 C 160.4375 178.058594 159.984375 178.09375 159.539062 178.195312 C 159.089844 178.296875 158.664062 178.464844 158.265625 178.695312 C 157.867188 178.921875 157.511719 179.207031 157.199219 179.542969 C 156.886719 179.878906 156.628906 180.253906 156.429688 180.667969 C 152.691406 187.421875 148.867188 194.128906 145.085938 200.855469 C 144.847656 201.277344 144.59375 201.691406 144.195312 202.367188 L 118.160156 157.191406 C 117.464844 156.214844 116.59375 155.433594 115.550781 154.839844 C 114.511719 154.25 113.394531 153.902344 112.199219 153.804688 C 111.511719 153.792969 110.832031 153.867188 110.164062 154.023438 C 109.496094 154.179688 108.855469 154.410156 108.242188 154.722656 C 107.632812 155.035156 107.066406 155.417969 106.546875 155.867188 C 106.027344 156.320312 105.570312 156.824219 105.175781 157.386719 C 92.316406 179.589844 87.289062 188.449219 85.730469 191.371094 C 85.300781 192.179688 83.242188 195.710938 80.496094 200.472656 C 80.28125 200.851562 80.035156 201.210938 79.71875 201.71875 C 77.246094 197.453125 74.855469 193.34375 72.488281 189.238281 C 70.824219 186.363281 69.140625 183.5 67.5 180.613281 C 67.296875 180.210938 67.042969 179.847656 66.734375 179.519531 C 66.425781 179.191406 66.074219 178.917969 65.683594 178.691406 C 65.292969 178.46875 64.878906 178.304688 64.441406 178.203125 C 64.003906 178.097656 63.558594 178.0625 63.109375 178.089844 C 54.625 178.140625 46.140625 178.113281 37.652344 178.109375 L 35.945312 178.109375 C 36.214844 177.585938 36.375 177.203125 36.582031 176.839844 C 45.429688 161.175781 54.273438 145.503906 63.109375 129.828125 C 63.183594 129.636719 63.289062 129.460938 63.429688 129.308594 C 63.570312 129.160156 63.734375 129.039062 63.921875 128.953125 C 64.109375 128.867188 64.304688 128.820312 64.511719 128.8125 C 64.71875 128.804688 64.917969 128.835938 65.113281 128.90625 C 68.144531 129.527344 71.214844 129.964844 74.246094 130.585938 C 74.921875 130.761719 75.449219 131.148438 75.820312 131.742188 C 78.59375 136.71875 81.300781 141.734375 84.003906 146.746094 C 84.230469 147.265625 84.503906 147.753906 84.832031 148.210938 C 85.160156 148.671875 85.53125 149.09375 85.945312 149.476562 C 86.359375 149.859375 86.808594 150.195312 87.292969 150.484375 C 87.777344 150.773438 88.285156 151.007812 88.820312 151.191406 C 89.351562 151.375 89.898438 151.5 90.460938 151.570312 C 91.019531 151.636719 91.582031 151.648438 92.144531 151.601562 C 92.703125 151.550781 93.257812 151.445312 93.796875 151.285156 C 94.335938 151.121094 94.855469 150.902344 95.347656 150.632812 C 97.953125 149.589844 100.496094 148.421875 102.984375 147.121094 C 105.074219 145.90625 107.363281 145.0625 109.464844 143.855469 C 110.097656 143.464844 110.78125 143.269531 111.523438 143.261719 C 112.035156 143.265625 112.519531 143.371094 112.980469 143.589844 C 117.925781 146.042969 122.945312 148.339844 127.835938 150.902344 C 128.34375 151.175781 128.875 151.398438 129.425781 151.566406 C 129.980469 151.734375 130.542969 151.84375 131.117188 151.898438 C 131.691406 151.953125 132.265625 151.949219 132.839844 151.890625 C 133.414062 151.828125 133.976562 151.710938 134.527344 151.539062 C 135.078125 151.363281 135.605469 151.136719 136.109375 150.855469 C 136.613281 150.578125 137.085938 150.25 137.523438 149.875 C 137.964844 149.503906 138.363281 149.089844 138.71875 148.632812 C 139.074219 148.179688 139.382812 147.695312 139.640625 147.179688 C 142.125 142.253906 144.980469 137.519531 147.613281 132.671875 C 147.792969 132.285156 148.054688 131.96875 148.398438 131.722656 C 148.742188 131.476562 149.125 131.328125 149.546875 131.28125 C 152.789062 130.742188 156 130.164062 159.210938 129.515625 C 159.382812 129.449219 159.5625 129.417969 159.746094 129.425781 C 159.929688 129.429688 160.105469 129.472656 160.273438 129.546875 C 160.441406 129.625 160.589844 129.730469 160.714844 129.863281 C 160.84375 130 160.9375 130.152344 161.003906 130.324219 C 168.925781 144.347656 176.875 158.359375 184.851562 172.355469 C 185.890625 174.183594 186.917969 176.011719 188.109375 178.121094 Z M 111.675781 121.433594 C 113 121.441406 114.324219 121.382812 115.644531 121.261719 C 116.960938 121.140625 118.273438 120.953125 119.574219 120.703125 C 120.875 120.449219 122.164062 120.136719 123.433594 119.757812 C 124.703125 119.382812 125.953125 118.941406 127.179688 118.441406 C 128.40625 117.941406 129.609375 117.382812 130.78125 116.765625 C 131.953125 116.144531 133.09375 115.472656 134.199219 114.742188 C 135.304688 114.011719 136.371094 113.230469 137.402344 112.394531 C 138.429688 111.558594 139.414062 110.675781 140.359375 109.742188 C 141.300781 108.808594 142.195312 107.832031 143.039062 106.8125 C 143.886719 105.792969 144.679688 104.734375 145.421875 103.636719 C 146.164062 102.539062 146.851562 101.40625 147.480469 100.238281 C 148.113281 99.074219 148.683594 97.878906 149.199219 96.65625 C 149.710938 95.433594 150.164062 94.191406 150.554688 92.925781 C 150.945312 91.65625 151.273438 90.375 151.539062 89.078125 C 151.800781 87.777344 152.003906 86.46875 152.140625 85.152344 C 152.273438 83.832031 152.347656 82.511719 152.351562 81.183594 C 152.359375 79.859375 152.300781 78.535156 152.175781 77.21875 C 152.050781 75.898438 151.863281 74.585938 151.609375 73.285156 C 151.355469 71.984375 151.039062 70.699219 150.660156 69.429688 C 150.28125 68.160156 149.839844 66.910156 149.339844 65.683594 C 148.835938 64.457031 148.277344 63.257812 147.65625 62.085938 C 147.035156 60.914062 146.359375 59.777344 145.628906 58.671875 C 144.894531 57.566406 144.109375 56.5 143.273438 55.472656 C 142.4375 54.445312 141.550781 53.460938 140.617188 52.519531 C 139.683594 51.578125 138.707031 50.6875 137.683594 49.839844 C 136.664062 48.996094 135.601562 48.203125 134.503906 47.464844 C 133.40625 46.722656 132.269531 46.039062 131.105469 45.410156 C 129.9375 44.78125 128.742188 44.210938 127.519531 43.699219 C 126.296875 43.1875 125.050781 42.738281 123.785156 42.347656 C 122.519531 41.960938 121.234375 41.632812 119.9375 41.371094 C 118.636719 41.109375 117.328125 40.910156 116.007812 40.777344 C 114.691406 40.644531 113.367188 40.574219 112.042969 40.570312 C 110.71875 40.566406 109.394531 40.625 108.074219 40.753906 C 106.757812 40.878906 105.445312 41.070312 104.144531 41.324219 C 102.84375 41.578125 101.558594 41.898438 100.289062 42.277344 C 99.019531 42.660156 97.773438 43.101562 96.546875 43.605469 C 95.320312 44.109375 94.121094 44.671875 92.953125 45.296875 C 91.78125 45.917969 90.644531 46.59375 89.539062 47.328125 C 88.4375 48.0625 87.371094 48.847656 86.34375 49.6875 C 85.316406 50.523438 84.335938 51.410156 83.394531 52.347656 C 82.457031 53.28125 81.566406 54.261719 80.722656 55.285156 C 79.878906 56.308594 79.089844 57.367188 78.347656 58.46875 C 77.609375 59.570312 76.929688 60.703125 76.300781 61.871094 C 75.671875 63.039062 75.105469 64.234375 74.597656 65.457031 C 74.085938 66.683594 73.636719 67.929688 73.25 69.195312 C 72.863281 70.464844 72.539062 71.746094 72.28125 73.046875 C 72.019531 74.347656 71.824219 75.65625 71.691406 76.972656 C 71.558594 78.292969 71.492188 79.617188 71.488281 80.941406 C 71.492188 82.261719 71.558594 83.578125 71.6875 84.890625 C 71.816406 86.203125 72.011719 87.503906 72.269531 88.800781 C 72.527344 90.09375 72.84375 91.371094 73.226562 92.632812 C 73.609375 93.898438 74.050781 95.136719 74.554688 96.359375 C 75.058594 97.578125 75.621094 98.769531 76.238281 99.933594 C 76.859375 101.097656 77.535156 102.230469 78.265625 103.328125 C 78.996094 104.429688 79.777344 105.488281 80.609375 106.511719 C 81.445312 107.535156 82.328125 108.515625 83.253906 109.449219 C 84.183594 110.386719 85.15625 111.277344 86.175781 112.117188 C 87.191406 112.957031 88.246094 113.75 89.339844 114.488281 C 90.429688 115.226562 91.558594 115.910156 92.71875 116.539062 C 93.878906 117.164062 95.066406 117.738281 96.28125 118.25 C 97.496094 118.761719 98.734375 119.214844 99.996094 119.605469 C 101.253906 119.996094 102.53125 120.328125 103.824219 120.59375 C 105.113281 120.859375 106.417969 121.0625 107.726562 121.203125 C 109.039062 121.34375 110.355469 121.421875 111.675781 121.433594 Z M 111.980469 48.605469 C 113.042969 48.609375 114.101562 48.664062 115.15625 48.769531 C 116.214844 48.875 117.261719 49.03125 118.304688 49.242188 C 119.34375 49.449219 120.371094 49.710938 121.386719 50.019531 C 122.402344 50.332031 123.398438 50.691406 124.378906 51.097656 C 125.359375 51.507812 126.316406 51.960938 127.253906 52.464844 C 128.1875 52.96875 129.097656 53.515625 129.976562 54.105469 C 130.859375 54.699219 131.710938 55.332031 132.527344 56.007812 C 133.347656 56.683594 134.132812 57.398438 134.878906 58.148438 C 135.628906 58.902344 136.339844 59.691406 137.011719 60.511719 C 137.683594 61.335938 138.3125 62.1875 138.898438 63.070312 C 139.488281 63.957031 140.03125 64.867188 140.527344 65.804688 C 141.027344 66.742188 141.476562 67.703125 141.878906 68.683594 C 142.285156 69.664062 142.636719 70.664062 142.941406 71.683594 C 143.25 72.699219 143.503906 73.726562 143.707031 74.769531 C 143.910156 75.8125 144.0625 76.863281 144.164062 77.917969 C 144.265625 78.976562 144.316406 80.035156 144.3125 81.097656 C 144.308594 82.15625 144.253906 83.214844 144.144531 84.273438 C 144.039062 85.328125 143.878906 86.378906 143.667969 87.417969 C 143.457031 88.457031 143.199219 89.484375 142.886719 90.5 C 142.574219 91.515625 142.214844 92.511719 141.804688 93.492188 C 141.394531 94.472656 140.9375 95.429688 140.433594 96.363281 C 139.929688 97.296875 139.382812 98.207031 138.789062 99.085938 C 138.195312 99.96875 137.5625 100.816406 136.886719 101.636719 C 136.210938 102.453125 135.496094 103.238281 134.742188 103.984375 C 133.988281 104.734375 133.199219 105.441406 132.375 106.113281 C 131.554688 106.78125 130.699219 107.410156 129.8125 107.996094 C 128.929688 108.585938 128.015625 109.125 127.078125 109.621094 C 126.140625 110.121094 125.179688 110.570312 124.199219 110.972656 C 123.214844 111.375 122.214844 111.726562 121.199219 112.03125 C 120.179688 112.335938 119.152344 112.589844 118.109375 112.792969 C 117.066406 112.996094 116.019531 113.144531 114.960938 113.246094 C 113.90625 113.34375 112.84375 113.394531 111.785156 113.386719 C 110.722656 113.382812 109.664062 113.328125 108.605469 113.21875 C 107.550781 113.109375 106.503906 112.949219 105.460938 112.738281 C 104.421875 112.527344 103.394531 112.265625 102.378906 111.953125 C 101.367188 111.640625 100.367188 111.277344 99.390625 110.867188 C 98.410156 110.457031 97.453125 110 96.519531 109.492188 C 95.585938 108.988281 94.679688 108.4375 93.800781 107.84375 C 92.917969 107.25 92.070312 106.617188 91.253906 105.9375 C 90.433594 105.261719 89.652344 104.546875 88.90625 103.789062 C 88.160156 103.035156 87.449219 102.246094 86.78125 101.421875 C 86.113281 100.597656 85.484375 99.746094 84.898438 98.859375 C 84.3125 97.972656 83.773438 97.0625 83.277344 96.121094 C 82.78125 95.183594 82.332031 94.222656 81.933594 93.238281 C 81.53125 92.257812 81.179688 91.257812 80.875 90.238281 C 80.574219 89.222656 80.320312 88.191406 80.117188 87.148438 C 79.917969 86.105469 79.765625 85.058594 79.667969 84 C 79.570312 82.941406 79.523438 81.882812 79.53125 80.820312 C 79.539062 79.765625 79.597656 78.710938 79.707031 77.65625 C 79.820312 76.605469 79.980469 75.5625 80.195312 74.523438 C 80.40625 73.488281 80.671875 72.464844 80.984375 71.453125 C 81.296875 70.445312 81.65625 69.453125 82.070312 68.476562 C 82.480469 67.5 82.933594 66.550781 83.4375 65.617188 C 83.941406 64.6875 84.488281 63.785156 85.082031 62.90625 C 85.671875 62.03125 86.304688 61.183594 86.980469 60.371094 C 87.65625 59.554688 88.367188 58.773438 89.117188 58.027344 C 89.871094 57.285156 90.65625 56.578125 91.472656 55.910156 C 92.292969 55.238281 93.144531 54.613281 94.027344 54.027344 C 94.90625 53.441406 95.816406 52.902344 96.75 52.40625 C 97.683594 51.910156 98.640625 51.457031 99.617188 51.054688 C 100.59375 50.652344 101.589844 50.296875 102.601562 49.992188 C 103.617188 49.6875 104.640625 49.429688 105.679688 49.226562 C 106.714844 49.019531 107.761719 48.863281 108.8125 48.761719 C 109.867188 48.660156 110.921875 48.605469 111.980469 48.605469 Z M 93.664062 86.054688 C 93.441406 85.859375 93.238281 85.636719 93.058594 85.398438 C 92.878906 85.15625 92.722656 84.902344 92.59375 84.628906 C 92.46875 84.359375 92.371094 84.074219 92.300781 83.785156 C 92.230469 83.492188 92.191406 83.195312 92.183594 82.894531 C 92.171875 82.59375 92.195312 82.296875 92.246094 82 C 92.300781 81.703125 92.382812 81.417969 92.492188 81.136719 C 92.605469 80.859375 92.742188 80.59375 92.910156 80.34375 C 93.074219 80.09375 93.265625 79.863281 93.476562 79.652344 C 93.691406 79.441406 93.921875 79.253906 94.175781 79.089844 C 94.425781 78.925781 94.691406 78.789062 94.972656 78.679688 C 95.253906 78.570312 95.539062 78.492188 95.835938 78.441406 C 96.132812 78.390625 96.429688 78.371094 96.730469 78.382812 C 97.03125 78.394531 97.328125 78.4375 97.617188 78.507812 C 97.910156 78.578125 98.191406 78.679688 98.460938 78.8125 C 98.734375 78.941406 98.988281 79.097656 99.226562 79.277344 C 99.464844 79.460938 99.683594 79.664062 99.878906 79.894531 C 101.769531 81.75 103.597656 83.648438 105.570312 85.644531 L 117.429688 73.761719 C 119.554688 71.636719 121.671875 69.503906 123.804688 67.386719 C 124 67.152344 124.21875 66.9375 124.457031 66.75 C 124.695312 66.558594 124.953125 66.398438 125.226562 66.261719 C 125.5 66.125 125.785156 66.019531 126.082031 65.941406 C 126.378906 65.863281 126.679688 65.820312 126.984375 65.804688 C 127.289062 65.789062 127.59375 65.808594 127.894531 65.855469 C 128.195312 65.90625 128.488281 65.984375 128.773438 66.097656 C 129.058594 66.207031 129.328125 66.34375 129.585938 66.511719 C 129.84375 66.675781 130.078125 66.867188 130.292969 67.085938 C 130.511719 67.300781 130.703125 67.535156 130.871094 67.792969 C 131.039062 68.046875 131.175781 68.316406 131.289062 68.601562 C 131.398438 68.886719 131.480469 69.179688 131.53125 69.480469 C 131.582031 69.78125 131.597656 70.085938 131.585938 70.390625 C 131.574219 70.695312 131.527344 70.996094 131.453125 71.292969 C 131.375 71.589844 131.269531 71.875 131.136719 72.148438 C 131 72.421875 130.839844 72.679688 130.652344 72.921875 C 130.460938 73.160156 130.25 73.378906 130.015625 73.574219 C 122.996094 80.628906 115.953125 87.675781 108.894531 94.710938 C 108.691406 94.949219 108.464844 95.160156 108.21875 95.347656 C 107.96875 95.53125 107.703125 95.691406 107.417969 95.820312 C 107.136719 95.949219 106.84375 96.046875 106.539062 96.113281 C 106.234375 96.179688 105.925781 96.214844 105.613281 96.214844 C 105.304688 96.214844 104.996094 96.179688 104.691406 96.113281 C 104.386719 96.046875 104.09375 95.949219 103.808594 95.820312 C 103.527344 95.691406 103.261719 95.53125 103.011719 95.347656 C 102.761719 95.160156 102.535156 94.949219 102.332031 94.710938 C 99.421875 91.855469 96.535156 88.96875 93.664062 86.054688 Z M 93.664062 86.054688 " fill-opacity="1" fill-rule="nonzero"/></g></svg>