<svg xmlns="http://www.w3.org/2000/svg" xmlns:xlink="http://www.w3.org/1999/xlink" width="300" zoomAndPan="magnify" viewBox="0 0 224.87999 233.04" height="300" preserveAspectRatio="xMidYMid meet" version="1.0"><defs><clipPath id="5fa216de9d"><path d="M 11.605469 92 L 213.273438 92 L 213.273438 206.847656 L 11.605469 206.847656 Z M 11.605469 92 " clip-rule="nonzero"/></clipPath><clipPath id="820be5dd55"><path d="M 103 17.128906 L 129 17.128906 L 129 81 L 103 81 Z M 103 17.128906 " clip-rule="nonzero"/></clipPath></defs><path fill="#374d45" d="M 89.402344 137.929688 C 77.832031 146.804688 69.789062 158.578125 64.808594 173.917969 C 64.214844 175.742188 65.214844 177.703125 67.042969 178.296875 C 67.398438 178.414062 67.761719 178.46875 68.117188 178.46875 C 69.582031 178.46875 70.945312 177.535156 71.421875 176.0625 C 75.953125 162.109375 83.21875 151.4375 93.636719 143.445312 C 95.160156 142.277344 95.449219 140.09375 94.277344 138.570312 C 93.109375 137.046875 90.925781 136.761719 89.402344 137.929688 Z M 89.402344 137.929688 " fill-opacity="1" fill-rule="nonzero"/><g clip-path="url(#5fa216de9d)"><path fill="#374d45" d="M 209.667969 187.578125 L 184.398438 187.578125 C 183.210938 152.175781 156.359375 123.167969 121.894531 118.609375 C 124.21875 114.847656 125.792969 109.617188 126.234375 103.488281 C 126.464844 100.308594 124.929688 97.273438 122.230469 95.566406 C 116.253906 91.789062 108.535156 91.789062 102.5625 95.566406 C 99.859375 97.273438 98.324219 100.308594 98.554688 103.488281 C 99 109.617188 100.570312 114.847656 102.898438 118.609375 C 68.433594 123.167969 41.582031 152.175781 40.394531 187.578125 L 15.125 187.578125 C 13.203125 187.578125 11.644531 189.136719 11.644531 191.058594 C 11.644531 192.976562 13.203125 194.535156 15.125 194.535156 L 21.578125 194.535156 L 25.527344 202.617188 C 26.785156 205.1875 29.445312 206.847656 32.304688 206.847656 L 192.488281 206.847656 C 195.347656 206.847656 198.007812 205.1875 199.261719 202.617188 L 203.210938 194.535156 L 209.667969 194.535156 C 211.589844 194.535156 213.144531 192.976562 213.144531 191.058594 C 213.144531 189.136719 211.589844 187.578125 209.667969 187.578125 Z M 105.492188 102.984375 C 105.449219 102.371094 105.75 101.78125 106.277344 101.445312 C 108.136719 100.269531 110.265625 99.683594 112.394531 99.683594 C 114.527344 99.683594 116.65625 100.269531 118.511719 101.445312 C 119.042969 101.78125 119.34375 102.371094 119.300781 102.984375 C 118.601562 112.640625 114.773438 117.980469 112.394531 117.980469 C 110.019531 117.980469 106.191406 112.640625 105.492188 102.984375 Z M 112.394531 124.9375 C 147.46875 124.9375 176.144531 152.816406 177.441406 187.578125 L 47.351562 187.578125 C 48.644531 152.816406 77.324219 124.9375 112.394531 124.9375 Z M 193.015625 199.5625 C 192.917969 199.761719 192.710938 199.890625 192.488281 199.890625 L 32.304688 199.890625 C 32.082031 199.890625 31.875 199.761719 31.777344 199.5625 L 29.320312 194.535156 L 195.472656 194.535156 Z M 193.015625 199.5625 " fill-opacity="1" fill-rule="nonzero"/></g><g clip-path="url(#820be5dd55)"><path fill="#374d45" d="M 113.46875 79.859375 C 114.023438 80.183594 114.625 80.335938 115.222656 80.335938 C 116.417969 80.335938 117.582031 79.722656 118.226562 78.617188 C 119.199219 76.957031 118.640625 74.828125 116.984375 73.859375 C 112.992188 71.523438 110.742188 69.113281 110.296875 66.691406 C 109.515625 62.445312 113.984375 56.886719 118.308594 51.507812 C 125.574219 42.472656 135.519531 30.101562 121.285156 18.351562 C 119.804688 17.128906 117.613281 17.339844 116.390625 18.820312 C 115.167969 20.300781 115.378906 22.496094 116.859375 23.714844 C 124.953125 30.394531 121.863281 35.988281 112.886719 47.152344 C 107.582031 53.75 102.097656 60.570312 103.457031 67.953125 C 104.296875 72.515625 107.574219 76.410156 113.46875 79.859375 Z M 113.46875 79.859375 " fill-opacity="1" fill-rule="nonzero"/></g><path fill="#374d45" d="M 84.957031 91.734375 C 85.507812 92.058594 86.113281 92.210938 86.707031 92.210938 C 87.902344 92.210938 89.066406 91.597656 89.714844 90.492188 C 90.683594 88.832031 90.125 86.703125 88.46875 85.734375 C 85.117188 83.769531 83.234375 81.777344 82.871094 79.808594 C 82.226562 76.320312 86.050781 71.566406 89.746094 66.96875 C 93.152344 62.730469 96.675781 58.347656 98.078125 53.574219 C 99.851562 47.546875 97.898438 42.136719 92.269531 37.492188 C 90.789062 36.269531 88.597656 36.480469 87.375 37.960938 C 86.152344 39.441406 86.363281 41.636719 87.84375 42.855469 C 94.601562 48.433594 92.105469 52.929688 84.324219 62.609375 C 79.648438 68.429688 74.808594 74.445312 76.03125 81.070312 C 76.785156 85.175781 79.707031 88.664062 84.957031 91.734375 Z M 84.957031 91.734375 " fill-opacity="1" fill-rule="nonzero"/><path fill="#374d45" d="M 126.273438 81.066406 C 127.027344 85.175781 129.949219 88.664062 135.199219 91.734375 C 135.75 92.058594 136.355469 92.210938 136.949219 92.210938 C 138.144531 92.210938 139.308594 91.597656 139.957031 90.492188 C 140.925781 88.832031 140.367188 86.703125 138.710938 85.734375 C 135.359375 83.769531 133.476562 81.777344 133.113281 79.808594 C 132.46875 76.320312 136.292969 71.566406 139.988281 66.96875 C 143.394531 62.730469 146.917969 58.347656 148.320312 53.574219 C 150.09375 47.546875 148.140625 42.136719 142.511719 37.492188 C 141.03125 36.269531 138.839844 36.480469 137.617188 37.960938 C 136.394531 39.441406 136.605469 41.636719 138.085938 42.855469 C 144.84375 48.433594 142.347656 52.929688 134.566406 62.609375 C 129.890625 68.429688 125.050781 74.445312 126.273438 81.066406 Z M 126.273438 81.066406 " fill-opacity="1" fill-rule="nonzero"/></svg>